<svg width="32" height="32" viewBox="0 0 32 32" fill="none" xmlns="http://www.w3.org/2000/svg">
<path d="M22.234 10.4614L11.2039 17.0985C11.0143 17.2091 10.9353 17.4303 10.9985 17.6358L12.4365 22.7874C12.4839 22.9296 12.6893 22.9138 12.7051 22.7558L13.0212 19.2002C13.037 18.9316 13.1634 18.6787 13.3689 18.5049L22.3763 10.6511C22.4711 10.5563 22.3447 10.3824 22.234 10.4614Z" fill="#78866B"/>
<path d="M26.4691 0H5.53086C2.48099 0 0 2.48099 0 5.53086V26.4691C0 29.519 2.48099 32 5.53086 32H26.4691C29.519 32 32 29.519 32 26.4691V5.53086C32 2.48099 29.5032 0 26.4691 0ZM27.3857 6.98469L23.3402 25.363C23.198 25.9793 22.4711 26.2321 21.9812 25.837L17.2405 22.076C16.8928 21.7916 16.3714 21.839 16.0711 22.1867L13.6375 24.9995C13.2109 25.5052 12.3891 25.3314 12.1995 24.7151L10.0504 18.0938C9.95555 17.8252 9.73432 17.6039 9.46568 17.5407L5.21482 16.4188C4.44049 16.2133 4.36148 15.1388 5.1042 14.8227L26.2321 6.02074C26.8642 5.7679 27.5279 6.32099 27.3857 6.98469Z" fill="#78866B"/>
</svg>
