<svg width="32" height="32" viewBox="0 0 32 32" fill="none" xmlns="http://www.w3.org/2000/svg">
<path d="M15.3431 32H16.6756C23.9088 32 27.5262 32 29.7731 29.7537C32.0194 27.5069 32 23.8912 32 16.6756V15.3244C32 8.11 32 4.49312 29.7731 2.24625C27.5456 0 23.9088 0 16.6756 0H15.3431C8.10875 0 4.49312 0 2.24625 2.24625C0 4.49312 0 8.1075 0 15.3244V16.6756C0 23.8912 0 27.5069 2.24625 29.7537C4.49312 32 8.10875 32 15.3431 32ZM17.1719 23.0719C9.95625 23.0719 5.5775 18.0656 5.4075 9.74687H9.06188C9.17563 15.8581 11.9556 18.4512 14.0869 18.98V9.74687H17.59V15.0194C19.6456 14.7912 21.7962 12.3931 22.5206 9.74687H25.9656C25.4138 13.0019 23.0725 15.4006 21.4163 16.39C23.0725 17.1906 25.7375 19.2844 26.765 23.0719H22.9775C22.1775 20.54 20.2169 18.5794 17.59 18.3131V23.0719H17.1719Z" fill="#78866B"/>
</svg>
