<svg width="342" height="342" viewBox="0 0 342 342" fill="none" xmlns="http://www.w3.org/2000/svg">
<g clip-path="url(#clip0_1_3)">
<path d="M90 2.53336C83.0667 6.80002 72.2667 19.3334 70.8 24.8C67.7333 36.4 66.5333 34.9334 137.067 105.733L202 170.667L137.733 235.067C91.8667 280.933 72.8 300.8 71.3333 304.533C67.7333 313.2 69.6 319.067 79.2 329.067C89.2 339.467 92.5333 341.333 101.6 341.333H108.667L189.067 260.933C276.533 173.6 273.733 176.8 270.667 164.933C269.333 160 260.667 150.8 194.933 84.8C154.133 43.8667 117.733 8.00002 114.267 5.20002C108.533 0.66669 106.933 2.28882e-05 100.933 2.28882e-05C96.5333 2.28882e-05 92.5333 0.933356 90 2.53336Z" fill="#043904"/>
</g>
<defs>
<clipPath id="clip0_1_3">
<rect width="341.333" height="341.333" fill="white"/>
</clipPath>
</defs>
</svg>
