<svg width="342" height="342" viewBox="0 0 342 342" fill="none" xmlns="http://www.w3.org/2000/svg">
<g clip-path="url(#clip0_1_6)">
<path d="M251.333 2.53336C258.267 6.80002 269.067 19.3334 270.533 24.8C273.6 36.4 274.8 34.9334 204.267 105.733L139.333 170.667L203.6 235.067C249.467 280.933 268.533 300.8 270 304.533C273.6 313.2 271.733 319.067 262.133 329.067C252.133 339.467 248.8 341.333 239.733 341.333H232.667L152.267 260.933C64.8 173.6 67.6 176.8 70.6667 164.933C72 160 80.6667 150.8 146.4 84.8C187.2 43.8667 223.6 8.00002 227.067 5.20002C232.8 0.66669 234.4 2.28882e-05 240.4 2.28882e-05C244.8 2.28882e-05 248.8 0.933356 251.333 2.53336Z" fill="#043904"/>
</g>
<defs>
<clipPath id="clip0_1_6">
<rect width="341.333" height="341.333" fill="white" transform="matrix(-1 0 0 1 341.333 0)"/>
</clipPath>
</defs>
</svg>
