<svg width="60" height="60" viewBox="0 0 60 60" fill="none" xmlns="http://www.w3.org/2000/svg">
<path d="M49.9345 42.0002L50.1845 42.2502C50.752 42.8226 51.4551 43.2421 52.2283 43.4698C53.0015 43.6976 53.8198 43.7261 54.6069 43.5527C55.3814 43.3901 56.1026 43.0354 56.7041 42.5213C57.3057 42.0071 57.7683 41.3499 58.0494 40.6102C59.4297 36.986 60.0895 33.1273 59.9919 29.2503C59.7105 21.6354 56.5785 14.4042 51.2165 8.98986C45.8545 3.57554 38.654 0.373397 31.0422 0.0181198C27.0172 -0.121833 23.0052 0.55009 19.2455 1.99383C15.4857 3.43757 12.0552 5.62357 9.15832 8.42149C6.26147 11.2194 3.95765 14.572 2.38421 18.2793C0.810767 21.9867 -8.30805e-05 25.9729 6.38472e-09 30.0003C0.00926297 37.9539 3.17291 45.579 8.79694 51.2031C14.421 56.8271 22.0461 59.9907 29.9997 60C30.8447 60 31.6747 59.945 32.4997 59.875C33.1257 59.8222 33.7088 59.5357 34.1332 59.0725C34.5575 58.6093 34.7919 58.0032 34.7896 57.375L34.7096 48.4051C34.6894 46.6326 35.1979 44.8942 36.1702 43.412C37.1426 41.9298 38.5346 40.771 40.1685 40.0836C41.8025 39.3962 43.6043 39.2114 45.3437 39.5528C47.0832 39.8942 48.6815 40.7462 49.9345 42.0002ZM42.5796 20.1254C43.2964 19.9352 44.0535 19.9618 44.7552 20.2019C45.4569 20.442 46.0716 20.8847 46.5217 21.4741C46.9718 22.0635 47.237 22.7732 47.2838 23.5133C47.3306 24.2535 47.1569 24.9909 46.7846 25.6323C46.4123 26.2737 45.8582 26.7903 45.1924 27.1169C44.5265 27.4434 43.7788 27.5652 43.0437 27.4667C42.3086 27.3683 41.6193 27.0542 41.0627 26.564C40.5062 26.0738 40.1075 25.4296 39.9171 24.7129C39.7906 24.2368 39.7592 23.7405 39.8245 23.2523C39.8899 22.7641 40.0508 22.2936 40.298 21.8676C40.5453 21.4416 40.874 21.0685 41.2655 20.7695C41.657 20.4706 42.1035 20.2517 42.5796 20.1254ZM19.5048 42.3752C18.788 42.5654 18.0309 42.5388 17.3292 42.2987C16.6275 42.0586 16.0127 41.6159 15.5626 41.0265C15.1126 40.4371 14.8474 39.7274 14.8006 38.9873C14.7538 38.2471 14.9275 37.5097 15.2998 36.8683C15.672 36.2269 16.2261 35.7102 16.892 35.3837C17.5579 35.0572 18.3056 34.9354 19.0407 35.0338C19.7757 35.1323 20.4651 35.4464 21.0216 35.9366C21.5781 36.4268 21.9768 37.071 22.1673 37.7877C22.2937 38.2638 22.3252 38.7601 22.2598 39.2483C22.1945 39.7365 22.0336 40.207 21.7863 40.633C21.5391 41.059 21.2104 41.4321 20.8189 41.7311C20.4274 42.03 19.9809 42.2489 19.5048 42.3752ZM19.5048 27.3753C18.788 27.5655 18.0309 27.5389 17.3292 27.2989C16.6275 27.0588 16.0127 26.6161 15.5626 26.0266C15.1126 25.4372 14.8474 24.7276 14.8006 23.9874C14.7538 23.2473 14.9275 22.5099 15.2998 21.8685C15.672 21.227 16.2261 20.7104 16.892 20.3839C17.5579 20.0573 18.3056 19.9356 19.0407 20.034C19.7757 20.1324 20.4651 20.4466 21.0216 20.9368C21.5781 21.4269 21.9768 22.0711 22.1673 22.7879C22.2937 23.2639 22.3252 23.7602 22.2598 24.2484C22.1945 24.7366 22.0336 25.2071 21.7863 25.6332C21.5391 26.0592 21.2104 26.4323 20.8189 26.7312C20.4274 27.0301 19.9809 27.249 19.5048 27.3753ZM32.0047 19.8754C31.2879 20.0656 30.5307 20.039 29.829 19.7989C29.1274 19.5589 28.5126 19.1161 28.0625 18.5267C27.6124 17.9373 27.3472 17.2276 27.3004 16.4875C27.2536 15.7473 27.4274 15.01 27.7996 14.3685C28.1719 13.7271 28.726 13.2105 29.3919 12.884C30.0577 12.5574 30.8055 12.4357 31.5405 12.5341C32.2756 12.6325 32.965 12.9467 33.5215 13.4368C34.078 13.927 34.4767 14.5712 34.6671 15.288C34.7936 15.764 34.8251 16.2603 34.7597 16.7485C34.6944 17.2367 34.5335 17.7072 34.2862 18.1332C34.039 18.5592 33.7102 18.9324 33.3187 19.2313C32.9273 19.5302 32.4807 19.7491 32.0047 19.8754Z" fill="#78866B"/>
</svg>
