<svg width="60" height="60" viewBox="0 0 60 60" fill="none" xmlns="http://www.w3.org/2000/svg">
<path d="M32.0901 0.0692647C27.804 -0.230633 23.5034 0.393629 19.4795 1.89981C15.4556 3.40599 11.8021 5.75894 8.76635 8.79945C5.73058 11.84 3.38333 15.4971 1.88343 19.5234C0.383533 23.5496 -0.234017 27.8511 0.0725686 32.1368C1.17507 48.0193 15.2051 59.9993 32.7076 59.9993H47.5001C50.8141 59.9953 53.9912 58.6771 56.3345 56.3337C58.6779 53.9904 59.9961 50.8133 60.0001 47.4993V30.8493C60.0933 23.1429 57.2678 15.6865 52.0909 9.97719C46.9139 4.26789 39.7688 0.728358 32.0901 0.0692647ZM46.7501 24.2793L29.7676 41.0468C28.8304 41.9803 27.5616 42.5045 26.2388 42.5045C24.9161 42.5045 23.6472 41.9803 22.7101 41.0468L13.2501 31.7868C12.776 31.3226 12.5057 30.6892 12.4987 30.0258C12.4916 29.3624 12.7484 28.7233 13.2126 28.2493C13.6767 27.7752 14.3101 27.5049 14.9736 27.4979C15.637 27.4908 16.276 27.7476 16.7501 28.2118L26.2326 37.4793L43.2476 20.7293C43.7274 20.3071 44.3507 20.0847 44.9894 20.1078C45.6281 20.1309 46.2337 20.3977 46.6817 20.8535C47.1298 21.3092 47.3863 21.9193 47.3986 22.5583C47.4108 23.1973 47.1779 23.8167 46.7476 24.2893L46.7501 24.2793Z" fill="#78866B"/>
</svg>
