<svg width="56" height="60" viewBox="0 0 56 60" fill="none" xmlns="http://www.w3.org/2000/svg">
<path d="M51.815 20.7108L32.8425 2.19828C31.195 0.548276 28.825 -0.259224 26.5225 0.0707758L9.30253 2.42578C7.93503 2.61328 6.97753 3.87328 7.16503 5.24078C7.35253 6.60828 8.61003 7.56328 9.98253 7.37828L27.205 5.02328C27.97 4.91828 28.76 5.18078 29.3325 5.75328L48.3075 24.2658C50.92 26.8783 51.175 30.9658 49.115 33.8833C48.53 32.7158 47.8075 31.6033 46.8375 30.6333L28.15 12.1033C26.505 10.4583 24.1575 9.66578 21.83 9.97578L4.60753 12.3308C3.47253 12.4858 2.58753 13.3933 2.46253 14.5333L0.550034 31.8233C0.300034 34.1008 1.08503 36.3333 2.71003 37.9558L21.25 56.3383C23.61 58.7008 26.7475 59.9983 30.085 59.9983H30.1275C33.4825 59.9883 36.6275 58.6683 38.985 56.2808L46.9025 48.2608C49.22 45.9133 50.385 42.8633 50.46 39.7908L51.9025 38.3508C56.715 33.4758 56.6875 25.5708 51.8225 20.7083L51.815 20.7108ZM13 25.0008C11.62 25.0008 10.5 23.8808 10.5 22.5008C10.515 19.2308 15.485 19.2333 15.5 22.5008C15.5 23.8808 14.38 25.0008 13 25.0008Z" fill="#78866B"/>
</svg>
