<svg width="60" height="60" viewBox="0 0 60 60" fill="none" xmlns="http://www.w3.org/2000/svg">
<path d="M54.9998 3.01987e-05H51.4098C50.4245 -0.002776 49.4485 0.190018 48.5383 0.567236C47.6281 0.944455 46.8018 1.49859 46.1073 2.19753L24.7898 23.5C20.7719 22.1275 16.4076 22.1558 12.4078 23.5804C8.408 25.005 5.00843 27.7419 2.76282 31.3454C0.517204 34.9489 -0.442127 39.2065 0.0410876 43.4249C0.524302 47.6432 2.42159 51.5736 5.4239 54.5759C8.42622 57.5783 12.3566 59.4755 16.575 59.9588C20.7933 60.442 25.051 59.4826 28.6544 57.237C32.2579 54.9914 34.9949 51.5918 36.4195 47.5921C37.8441 43.5923 37.8724 39.228 36.4998 35.21L42.4998 29.21V20H49.9998V12.5H58.8773C59.6072 11.3262 59.9959 9.9723 59.9998 8.59003V5.00003C59.9998 3.67395 59.473 2.40218 58.5354 1.4645C57.5977 0.526815 56.3259 3.01987e-05 54.9998 3.01987e-05ZM13.7498 50C13.0081 50 12.2831 49.7801 11.6664 49.368C11.0497 48.956 10.5691 48.3703 10.2853 47.6851C10.0014 46.9999 9.92718 46.2459 10.0719 45.5184C10.2166 44.791 10.5737 44.1228 11.0982 43.5984C11.6226 43.0739 12.2908 42.7168 13.0182 42.5721C13.7457 42.4274 14.4997 42.5017 15.1849 42.7855C15.8701 43.0693 16.4558 43.55 16.8678 44.1666C17.2799 44.7833 17.4998 45.5083 17.4998 46.25C17.4998 47.2446 17.1047 48.1984 16.4015 48.9017C15.6982 49.6049 14.7444 50 13.7498 50Z" fill="#78866B"/>
</svg>
