<svg width="20" height="100" viewBox="0 0 20 100" fill="none" xmlns="http://www.w3.org/2000/svg">
<path d="M3.33378 62.0601L3.33378 70H16.667L16.667 62.0601L19.3638 56.6666L0.637027 56.6666L3.33378 62.0601Z" fill="#78866B"/>
<path d="M4.00543e-05 53.334L20 53.334L20 16.6672L4.00543e-05 16.6672L4.00543e-05 53.334Z" fill="#78866B"/>
<path d="M6.27556 91.7233L8.40382 98.8116C8.61549 99.5167 9.26382 100 10.0005 100C10.7356 100 11.3855 99.5167 11.5972 98.8118L13.7238 91.7235C15.5171 85.7452 16.4571 79.5652 16.6055 73.3335H3.39375C3.54228 79.565 4.4823 85.745 6.27556 91.7233Z" fill="#78866B"/>
<path d="M1.48106 9.02407C1.42944 9.16068 1.37444 9.29571 1.33949 9.43908L0.366106 13.334L19.6345 13.334L18.663 9.43908C18.6262 9.29571 18.573 9.16068 18.5196 9.02407C19.4163 8.2707 19.9995 7.15416 19.9995 5.89404V4.10733C19.9995 1.84227 18.1578 0.000748218 15.8929 0.000748218L4.10633 0.000748218C1.84305 0.000748218 -0.00025162 1.84247 -0.00025162 4.10733V5.89404C-0.000648756 7.15416 0.582544 8.2709 1.48106 9.02407Z" fill="#78866B"/>
</svg>
