<svg width="86" height="86" viewBox="0 0 86 86" fill="none" xmlns="http://www.w3.org/2000/svg">
<path d="M46.8144 56.242L52.4288 61.8564L61.8568 52.4284L56.2424 46.814L54.3355 41.0933L41.0937 54.3351L46.8144 56.242Z" fill="#78866B"/>
<path d="M38.2866 52.4292L52.4287 38.2871L26.5014 12.3598L12.3593 26.5019L38.2866 52.4292Z" fill="#78866B"/>
<path d="M69.8695 75.1374L76.3866 78.6446C77.0348 78.9936 77.835 78.8769 78.356 78.356C78.8757 77.8362 78.9935 77.0349 78.6448 76.3867L75.1364 69.8708C72.1771 64.3755 68.4719 59.3408 64.1703 54.8295L54.8282 64.1716C59.3396 68.4729 64.3742 72.1781 69.8695 75.1374Z" fill="#78866B"/>
<path d="M8.00146 20.0489C8.06156 20.182 8.11815 20.3164 8.19481 20.4425L10.2606 23.8849L23.8855 10.26L20.4443 8.19293C20.317 8.11753 20.1839 8.05968 20.0495 8.00085C20.1509 6.83405 19.7738 5.63215 18.8827 4.74112L17.6193 3.47772C16.0177 1.87608 13.4132 1.87622 11.8117 3.47772L3.47736 11.8121C1.87698 13.4125 1.87586 16.0182 3.47736 17.6197L4.74075 18.8831C5.63151 19.7744 6.83355 20.1517 8.00146 20.0489Z" fill="#78866B"/>
</svg>
