<svg width="101" height="21" viewBox="0 0 101 21" fill="none" xmlns="http://www.w3.org/2000/svg">
<path d="M62.2236 17.1081H70.1636V3.77488L62.2236 3.77488L56.8301 1.07812V19.8049L62.2236 17.1081Z" fill="#78866B"/>
<path d="M53.4971 20.4414V0.441406L16.8303 0.441406V20.4414L53.4971 20.4414Z" fill="#78866B"/>
<path d="M91.8869 14.1658L98.9751 12.0376C99.6803 11.8259 100.164 11.1776 100.164 10.4409C100.164 9.7058 99.6803 9.05589 98.9753 8.84422L91.8871 6.71756C85.9088 4.92429 79.7287 3.98427 73.4971 3.83594V17.0477C79.7286 16.8991 85.9086 15.9591 91.8869 14.1658Z" fill="#78866B"/>
<path d="M9.18667 18.9599C9.32328 19.0115 9.45831 19.0665 9.60167 19.1014L13.4966 20.0748L13.4966 0.806377L9.60167 1.77797C9.45831 1.8147 9.32328 1.86792 9.18667 1.92133C8.4333 1.0246 7.31675 0.441406 6.05664 0.441406L4.26993 0.441406C2.00486 0.441406 0.163346 2.28312 0.163346 4.54799L0.163346 16.3346C0.163346 18.5979 2.00506 20.4412 4.26993 20.4412H6.05664C7.31675 20.4416 8.4335 19.8584 9.18667 18.9599Z" fill="#78866B"/>
</svg>
